<?xml version="1.0" encoding="utf-8"?>
<!-- Generator: Adobe Illustrator 23.0.1, SVG Export Plug-In . SVG Version: 6.00 Build 0)  -->
<svg version="1.1" xmlns="http://www.w3.org/2000/svg" xmlns:xlink="http://www.w3.org/1999/xlink" x="0px" y="0px"
	 viewBox="0 0 465 300" style="enable-background:new 0 0 465 300;" xml:space="preserve">
<style type="text/css">
	.st0{fill:#0A0D1F;}
	.st1{fill:#ECE8FA;}
	.st2{fill:#0C8FE7;}
	.st3{fill:#8D9DB5;}
	.st4{fill:#0D3285;}
</style>
<g id="Bg">
</g>
<g id="Layer_1">
	<g>
		<g>
			<path class="st0" d="M465,19.83h-0.49v54.41h-3.16V22.79h-55.32c0,0,2.16-2.33,2.25-2.96h-44.02v37.82h29.02V19.89h1.76v39.1
				h-32.54V19.83H341v0.06h-1.76v-0.06h-78.27c-0.9,5.49-5.16,10.87-8.28,14.15c6.15,0.17,27.85,1.51,35.89,11.84
				c9.41,12.08-2.68,43.34-2.68,43.34s0-0.01,0-0.02c-0.29,0.83-0.6,1.66-0.93,2.47c0.78,0.38,1.49,0.9,2.07,1.6
				c3.47,4.16,0.56,11.85-3.8,15.7c1.29,1.42,2.48,2.44,2.52,2.47c2.62,2.11,5.06,3.59,5.06,3.59s-10.28-0.79-19.02-2.88
				c0,0.01,0,0.01,0,0.02c0,0,0.01-0.01,0.01-0.01s-0.02,0.05-0.05,0.13c-0.61,1.82-1.43,3.65-2.44,5.48
				c-1.82,3.5-4.67,7.98-8.69,11.53c-2.97,2.63-6.02,4.65-8.83,6.2c-0.14,4.17-0.33,11.41-0.32,18.15c0,0.03,1.92,13.94,2,16.39
				c0,0,14.91,5.24,29.68,11.85v-1.52h30.54v12.52h-9.57c1.78,1.19,3.33,2.36,4.57,3.49c0.67,0.61,1.24,1.52,1.73,2.59
				c0.25,0.38,0.46,0.76,0.63,1.14h2.58v12.52h-0.33c3.92,33.04-0.1,80.3-0.1,80.3h-37.51h-91.35c0,0,0,0,0,0h-32.1
				c0,0-7.39-67.3-6.79-73.85c1.58-17.2,3.06-18.41,3.06-18.41s0.02,0,0.03,0.01c0.28-2.01,2.23-7.13,16.31-14.37
				c16.76-8.62,41.17-15.39,41.65-15.52c0.02-0.03,0.04-0.05,0.06-0.08c2.01-3.33,2.86-23.39,3.13-31.74
				c0.03-1.01,0.06-1.94,0.08-2.76c-2.74-1.48-5.58-3.4-8.37-5.87c-0.08-0.06-0.15-0.13-0.23-0.19c-0.13-0.12-0.26-0.22-0.39-0.34
				c-0.06-0.05-0.1-0.1-0.16-0.15c-3.09-2.73-5.75-5.77-7.87-8.91c-0.07-0.1-0.14-0.21-0.21-0.31c-0.1-0.16-0.21-0.32-0.31-0.48
				c-2.21-3.36-3.66-6.63-4.52-9.79c-1.13,0.56-2.47,1.02-4,1.14c1.23,2.37,2.47,6.18,0.06,9.35c-1.11,1.45-3.1,2.3-5.21,2.3
				c-0.59,0-1.18-0.06-1.77-0.2c-2.15-0.5-4.37-2.05-4.13-4.9c0.37-4.5,3.17-6.19,3.29-6.26c0.34-0.2,0.83-0.15,1.1,0.11
				c0.26,0.26,0.2,0.64-0.15,0.83c0,0-2.36,1.47-2.68,5.38c-0.18,2.15,1.45,3.31,3.03,3.68c1.69,0.39,3.95,0.06,5.17-1.56
				c2.23-2.93,0.76-6.67-0.41-8.76c-0.19-0.02-0.38-0.02-0.58-0.05c-6.32-0.83-12.86-12.49-8.28-17.99
				c1.69-2.03,4.39-2.55,7.12-2.42c0.74,0.11,1.64,0.31,2.76,0.66c0.01,0,0.02,0.01,0.03,0.01c1.22,0.39,2.09,0.83,2.78,1.23
				c0.37,0.22,0.7,0.42,0.97,0.6c0.77,0.5,1.21,0.77,1.77,0.49c0.79-0.4,2.31-0.84,6.01-9.39c0.32-0.73,0.65-1.52,1-2.38
				c1.43-3.5,3.14-8.06,5.19-14.06c2.3-6.71,4.59-9.99,14.4-14.24c0.65-0.28,1.34-0.57,2.06-0.86c0,0-13.13,1.25-16.46,7.85
				c-3.33,6.59-7.02,17.22-12.88,20.25c-3.83,1.98-8.63,1.13-8.63,1.13c0,0,0,0,0,0c0.01,0,6.24-2.01,9.31-10.01
				c1.45-3.77,2.92-7.16,4.72-9.99c-1.04,1.01-1.69,1.68-1.72,1.71c-0.15,0.16-0.39,0.24-0.63,0.24c-0.16,0-0.33-0.04-0.47-0.12
				c-0.35-0.2-0.42-0.57-0.16-0.83c0.28-0.29,4.5-4.62,8.99-8.29c-0.88-0.11-2.04-0.28-3.37-0.55c-1.01,0.53-2.29,1.28-3.16,2.09
				c-1.61,1.51-3.33,4.15-3.33,4.15s-0.51-5.59,1.21-7.61c-0.69-0.22-1.39-0.47-2.09-0.74c-0.64-0.25-1.29-0.65-1.92-1.13
				l-3.62,2.21c0,0,0.32-3,1.04-4.37c-2.77,1.63-4.64,2.82-4.69,2.85c-0.15,0.09-0.32,0.14-0.5,0.14c-0.22,0-0.44-0.07-0.6-0.21
				c-0.28-0.25-0.23-0.63,0.1-0.84c0.2-0.13,2.16-1.38,4.99-3.04c-1.31-1.58-2.21-2.95-2.21-2.96c5.44-3.7,12.78-6.46,19.57-8.27
				c0.02,0.18,0.04,0.29,0.04,0.29s9.3-2.89,14.15-2.57c4.85,0.32,13.73,2.89,15.2,2.56c1.39-0.31,17.41-1.84,20.49-2.68
				c0.19-0.05,0.34-0.1,0.43-0.15c0.16-0.09,0.32-0.37,0.47-0.78c0.54-1.56,0.8-5.18-0.08-8.93c-0.18-0.77-0.41-1.54-0.7-2.3
				c-1.15-3.08-3.19-5.98-6.65-7.59c-9.59-4.46-23.44-5-31.82-2.87c-10.67,2.71-12.99,10.67-12.99,10.67s5.21-4.78,11.05-6.05
				c5.84-1.27,10.29,0,10.29,0s-7.69,0.07-12,2.33c-3.92,2.06-5.7,5.13-5.7,5.13s7.03-2.54,13.45-2.22
				c9.28,0.47,13.76,3.15,13.76,3.15s-5.16-1.28-10.44-0.93c-5.28,0.34-7.26,2.01-7.26,2.01l9.65,4.06
				c-4.05-1.51-11.97-3.65-18.19-0.36c-0.11,0.06-0.22,0.1-0.33,0.16c-0.42,0.24-0.77,0.52-1.08,0.82
				c-1.28,1.26-1.69,2.97-1.79,4.34c-0.03,0.47-0.03,0.89-0.01,1.24c0,0.06,0.01,0.12,0.01,0.17c-0.07-0.07-0.14-0.14-0.21-0.22
				c-0.75-0.19-1.52-0.47-2.07-0.68c-2.76-1.06-12.07-5.24-15.8-14.49c-0.11-0.26-0.16-0.53-0.22-0.8H56.67
				c0.09,0.62,2.25,2.96,2.25,2.96H3.6v51.46H2.27v45.85l20.95,16.01v51.71L2.27,203.82v7.56V223h43.72v1.35H2.27v25.39
				c0.7-0.45,1.3-0.88,1.3-0.88v48.38H62.4v2.62h340.15v-2.62h58.83v-48.38c0,0,3.56,2.52,3.56,1.87v49.13H465V19.83z
				 M368.38,192.85v-12.52h25.6v12.52H368.38z M284.91,167.65v-42.09h149.81v42.09H284.91z M355.98,192.85h-30.54v-12.52h30.54
				V192.85z M324,212.59v-12.52h30.54v12.52H324z M177.7,90.78c0,0,0.55-3.58,1.53-8.66L177.7,90.78z M178.38,80.1
				c-0.84-1.61-1.73-3.55-2.55-5.77C177.04,77.06,177.85,78.91,178.38,80.1z"/>
		</g>
		<g>
			<path class="st0" d="M253.41,30.03c0,0,0-0.03,0.01-0.05c-0.51,1.03-1.08,2.01-1.68,2.93c2.94-3.19,6.74-8.13,7.64-13.07h-3.5
				C256.48,24.61,253.41,30.03,253.41,30.03z"/>
		</g>
		<g>
			<path class="st0" d="M194.81,19.83h-4.28c0.76,1.8,2.07,3.41,3.66,4.77C193.99,23.01,194.15,21.4,194.81,19.83z"/>
		</g>
		<g>
			<path class="st0" d="M252.93,34.59c-0.24-0.08-0.42-0.14-0.62-0.21c-0.06,0.06-0.12,0.12-0.18,0.18
				C252.39,34.57,252.66,34.58,252.93,34.59z"/>
		</g>
		<g>
			<path class="st0" d="M188.89,19.83h-4.92c0.04,0.15,0.05,0.29,0.11,0.44c3.12,7.73,10.48,11.99,14.76,13.68
				c-1.79-2.17-3.4-4.68-4.21-7.28C192.1,24.91,189.93,22.57,188.89,19.83z"/>
		</g>
		<g>
			<path class="st0" d="M160.6,275.82c-0.53-1.53-1.08-3.14-1.64-4.81C159.58,273.11,160.14,274.71,160.6,275.82z"/>
		</g>
		<g>
			<polygon class="st0" points="21.45,187.25 21.45,136.66 2.27,122 2.27,201.91 			"/>
		</g>
		<g>
			<path class="st1" d="M461.35,22.79v51.46h3.16V19.83v-0.16h-56.34c0.1,0,0.13,0.06,0.11,0.16c-0.09,0.62-2.25,2.96-2.25,2.96
				H461.35z"/>
		</g>
		<g>
			<path class="st1" d="M461.38,248.86v48.38h-58.83v2.62V300h62.39v-0.14v-49.13C464.94,251.38,461.38,248.86,461.38,248.86z"/>
		</g>
		<g>
			<path class="st1" d="M3.6,22.79h55.32c0,0-2.16-2.33-2.25-2.96c-0.01-0.1,0.01-0.16,0.11-0.16H0.44v54.57h1.82H3.6V22.79z"/>
		</g>
		<g>
			<path class="st1" d="M3.57,297.24v-48.38c0,0-0.6,0.42-1.3,0.88c-1.02,0.66-2.26,1.38-2.26,0.99V300H62.4v-0.14v-2.62H3.57z"/>
		</g>
		<g>
			<polygon class="st2" points="45.99,224.35 45.99,223 2.27,223 -3.84,223 -3.84,208.49 2.27,203.82 23.22,187.81 23.22,136.1 
				2.27,120.09 -10.86,110.06 -10.86,102.44 1.09,102.44 1.09,101.09 -12.62,101.09 -12.62,110.62 2.27,122 21.45,136.66 
				21.45,187.25 2.27,201.91 -5.61,207.93 -5.61,224.35 2.27,224.35 			"/>
		</g>
		<g>
			<polygon class="st2" points="341,19.89 341,19.83 341,6.23 362.51,6.23 362.51,19.83 362.51,58.99 395.05,58.99 395.05,19.89 
				393.29,19.89 393.29,57.65 364.27,57.65 364.27,19.83 364.27,4.88 339.24,4.88 339.24,19.83 339.24,19.89 			"/>
		</g>
		<g>
			<path class="st1" d="M434.72,167.65v-42.09H284.91v42.09H434.72z M295.42,137.2h125.71v5.39H295.42V137.2z M295.42,154.14v-5.39
				h125.71v5.39H295.42z"/>
		</g>
		<g>
			<rect x="325.44" y="180.33" class="st1" width="30.54" height="12.52"/>
		</g>
		<g>
			<rect x="324" y="200.07" class="st1" width="30.54" height="12.52"/>
		</g>
		<g>
			<rect x="368.38" y="180.33" class="st1" width="25.6" height="12.52"/>
		</g>
		<g>
			<path class="st1" d="M209.74,136.17c-0.02,0.82-0.05,1.75-0.08,2.76C209.7,137.75,209.73,136.8,209.74,136.17
				C209.75,136.17,209.74,136.17,209.74,136.17z"/>
		</g>
		<g>
			<path class="st1" d="M206.54,170.67c-0.02,0.03-0.04,0.05-0.06,0.08c0,0,0.02-0.01,0.02-0.01
				C206.51,170.72,206.53,170.69,206.54,170.67z"/>
		</g>
		<g>
			<path class="st1" d="M241.42,145.83c-4.47,2.94-11.97,5.63-16.85,7.2c-2.9,0.93-4.91,2.98-5.32,5.37
				c-0.59,3.49-1.61,8.54-3.01,11.95c-0.34,0.83-0.78,1.6-1.27,2.33l15.03,3.41l19.71-4.48c-0.06-4.41,1.75-17.59,1.75-18.01l0,0
				c-0.01-6.74,0.18-13.98,0.32-18.15c-0.05,0.03-0.1,0.06-0.15,0.08C250.89,136.74,247.52,141.81,241.42,145.83z"/>
		</g>
		<g>
			<path class="st3" d="M214.52,172.57L214.52,172.57l0.46,0.1c0.49-0.73,0.94-1.51,1.27-2.33c1.39-3.41,2.42-8.46,3.01-11.95
				c0.41-2.39,2.41-4.43,5.32-5.37c4.87-1.57,12.37-4.25,16.85-7.2c6.1-4.01,9.47-9.09,10.21-10.29
				c-6.17,3.38-11.07,4.44-11.07,4.44s0.01-0.01,0.01-0.01c-3.35,0.89-6.86,1.39-10.47,1.39c-0.97,0-1.94-0.05-2.9-0.12
				c-0.29-0.05-7.94-1.45-17.37-8.82c-9.62-7.5-16.25-26.05-15.74-34.33c0.04-0.68,0.17-1.46,0.33-2.27c-4-0.71-5.88-2.03-5.88-2.03
				c-0.57,0.28-1,0.01-1.77-0.49c-0.14,3.6-0.18,6.64-0.18,8.6c0,2.65,0.32,5.39,1.09,8.22c0.86,3.16,2.31,6.43,4.52,9.79
				c0.1,0.16,0.2,0.32,0.31,0.48c0.07,0.1,0.14,0.21,0.21,0.31c2,2.9,4.58,5.87,7.87,8.91c0.06,0.05,0.1,0.1,0.16,0.15
				c0.13,0.12,0.26,0.22,0.39,0.34c0.08,0.07,0.15,0.13,0.23,0.19c2.79,2.47,5.63,4.39,8.37,5.87c0,0,0,0,0,0
				c-0.02,0.63-0.04,1.58-0.08,2.76c-0.27,8.35-1.11,28.41-3.13,31.74c-0.01,0.02-0.03,0.06-0.04,0.08L214.52,172.57z"/>
		</g>
		<g>
			<path class="st1" d="M186.6,101.9c0-1.96,0.04-5,0.18-8.6c-0.27-0.17-0.6-0.38-0.97-0.6c-1.05-0.53-1.98-0.94-2.81-1.24
				c-1.12-0.36-2.02-0.55-2.76-0.66c-2.73-0.14-5.43,0.39-7.12,2.42c-4.58,5.5,1.96,17.15,8.28,17.99c0.2,0.03,0.39,0.03,0.58,0.05
				c-0.54-0.97-1.02-1.59-1.04-1.61c-0.22-0.28-0.1-0.65,0.27-0.82c0.37-0.17,0.85-0.08,1.07,0.2c0.07,0.09,0.74,0.96,1.4,2.24
				c1.53-0.13,2.87-0.58,4-1.14C186.92,107.3,186.6,104.56,186.6,101.9z M172.79,94.98l2.36-2.23c0.27-0.25,0.76-0.29,1.1-0.09
				c0.34,0.21,0.39,0.58,0.12,0.84L174,95.73c-0.15,0.14-0.38,0.22-0.61,0.22c-0.17,0-0.35-0.04-0.49-0.13
				C172.57,95.61,172.52,95.24,172.79,94.98z M173.51,102.95c-0.04,0-0.08,0.01-0.11,0.01c-0.38,0-0.72-0.21-0.77-0.51l-0.55-2.89
				c-0.06-0.33,0.24-0.63,0.66-0.68c0.42-0.06,0.82,0.18,0.89,0.5l0.55,2.89C174.23,102.6,173.93,102.9,173.51,102.95z
				 M178.19,107.77c-0.14,0.09-0.32,0.14-0.49,0.14c-0.23,0-0.45-0.07-0.61-0.22l-1.95-1.83c-0.27-0.26-0.22-0.63,0.11-0.84
				c0.33-0.21,0.83-0.17,1.1,0.08l1.95,1.83C178.58,107.18,178.53,107.56,178.19,107.77z M181.62,108.08c0,0,0.27-6.5-2.26-8.34
				c-2.54-1.83-4.75,0-4.75,0s-1.27-4.73,2.54-5.83c5.29-1.52,8.72,5.69,8.56,9.81C185.53,107.84,181.62,108.08,181.62,108.08z"/>
		</g>
		<g>
			<path class="st3" d="M177.13,93.92c-3.81,1.1-2.54,5.83-2.54,5.83s2.22-1.83,4.75,0c2.54,1.83,2.26,8.34,2.26,8.34
				s3.92-0.24,4.08-4.36C185.85,99.61,182.42,92.39,177.13,93.92z"/>
		</g>
		<g>
			<path class="st4" d="M249.22,16.86c-4.83-6.6-15.81-8.5-16.55-8.62c-10.69-1.22-23.08,0.18-31.92,5.44
				c-3.18,1.89-5.03,3.98-5.94,6.15c-0.66,1.57-0.82,3.18-0.63,4.77c2.75,2.35,6.22,3.97,8.74,4.52c0.33,0.07,0.64,0.12,0.94,0.16
				c6.22-3.29,14.14-1.15,18.19,0.36l-9.65-4.06c0,0,1.98-1.67,7.26-2.01c5.28-0.34,10.44,0.93,10.44,0.93s-4.48-2.68-13.76-3.15
				c-6.42-0.33-13.45,2.22-13.45,2.22s1.77-3.08,5.7-5.13c4.31-2.26,12-2.33,12-2.33s-4.45-1.27-10.29,0
				c-5.84,1.27-11.05,6.05-11.05,6.05s2.32-7.96,12.99-10.67c8.38-2.13,22.23-1.59,31.82,2.87c3.46,1.61,5.5,4.51,6.65,7.59
				c0.21-0.55,0.4-1.11,0.57-1.7C250.73,19.15,250.07,18.01,249.22,16.86z"/>
		</g>
		<g>
			<path class="st4" d="M253.42,29.98c0.04-0.38,0.3-3.5-1.22-7.61c-0.25,0.66-0.52,1.29-0.79,1.87c0.88,3.76,0.62,7.37,0.08,8.93
				c0.08-0.09,0.17-0.18,0.25-0.27C252.34,31.99,252.91,31.01,253.42,29.98z"/>
		</g>
		<g>
			<path class="st4" d="M200.67,36.01c0-0.06-0.01-0.11-0.01-0.17c-0.07-0.02-0.13-0.02-0.2-0.04
				C200.53,35.87,200.6,35.94,200.67,36.01z"/>
		</g>
		<g>
			<path class="st4" d="M198.84,33.96c0.71,0.28,1.33,0.49,1.83,0.64c0.1-1.37,0.51-3.08,1.79-4.34c-2.3-0.51-5.22-1.75-7.83-3.58
				C195.44,29.28,197.05,31.78,198.84,33.96z"/>
		</g>
		<g>
			<path class="st4" d="M250.21,36.43c1.81-0.13,3.6-0.21,5.3-0.21h0.2c0.64,0,1.27,0.04,1.9,0.1c-1.9-0.75-3.53-1.34-4.68-1.74
				c-0.27-0.01-0.53-0.02-0.8-0.03C251.37,35.34,250.7,35.98,250.21,36.43z"/>
		</g>
		<g>
			<path class="st4" d="M178.38,80.1c-0.53-1.2-1.34-3.04-2.55-5.77C176.66,76.56,177.54,78.5,178.38,80.1z"/>
		</g>
		<g>
			<path class="st1" d="M201.62,90.34c4.95-1.82,7.45-1.05,7.45-1.05c-0.51-1.2-4.08-3.32-6.38-4.59l-4.38-0.17
				c-1.51,3.48-2.78,6.87-3.53,9.72c0.58-0.05,1.19-0.13,1.83-0.24C197,93.41,198.38,91.54,201.62,90.34z"/>
		</g>
		<g>
			<path class="st1" d="M258.71,80.45c0.23,0.45,0.39,0.97,0.53,1.53c1.79,0.56,3.51,1.18,4.69,1.63c-1.62-1.06-3.46-2.26-5.44-3.54
				C258.56,80.2,258.65,80.33,258.71,80.45z"/>
		</g>
		<g>
			<path class="st1" d="M200.59,129.62c-3.29-3.04-5.87-6.01-7.87-8.91C194.84,123.85,197.5,126.88,200.59,129.62z"/>
		</g>
		<g>
			<path class="st1" d="M201.38,130.3c-0.08-0.07-0.15-0.13-0.23-0.19C201.22,130.17,201.3,130.24,201.38,130.3z"/>
		</g>
		<g>
			<path class="st1" d="M192.51,120.39c-0.11-0.16-0.2-0.32-0.31-0.48C192.31,120.07,192.41,120.23,192.51,120.39z"/>
		</g>
		<g>
			<path class="st1" d="M256.51,106.68c-1.27-1.3-0.78-4.84,0.17-10.47c-0.88,0.04-1.82,0.04-2.83,0c0.17,0.41,0.28,0.84,0.28,1.3
				c0,2.42-2.57,4.39-5.75,4.39s-5.75-1.97-5.75-4.39c0-1.01,0.46-1.92,1.21-2.67c-4.08-0.56-6.18-0.23-6.18-0.23
				s9.3-4.22,16.52-1.65c1.02,0.36,1.97,0.62,2.89,0.83c0.54-3.28,1-6.63,0.89-9.31l-23.68,0.9c0,0,15.8-5.22,19.79-4.68
				c0.97,0.13,2.15,0.41,3.36,0.75c-0.07-0.19-0.12-0.4-0.2-0.57c-0.46-0.92-1.75-2.26-3.57-3.86
				c-13.65-8.6-31.08-18.75-35.16-17.35c-4.34,1.49-8.33,3.34-9.83,5.43c-1.98,2.75-5.57,9.09-8.71,15.74
				c0.28-0.05,0.55-0.1,0.81-0.13c3.99-0.54,19.79,4.68,19.79,4.68l-6.06-0.23c0,0,0,0,0,0c4.3,1.54,7.95,4.76,9.97,10.52
				c0.4-0.09,0.81,0.08,0.94,0.38c0.06,0.14,1.41,3.34,1.16,5.73c-0.08,0.76-0.66,1.64-1.32,2.66c-1.09,1.67-2.33,3.56-1.05,4.72
				c0.13,0.12,0.44,0.23,0.82,0.32c0.19,0.04,0.39,0.08,0.6,0.12c1.75,0.28,4.61,0.27,6.46-0.32c1.62-0.51,1.73-1.51,1.74-1.55
				c0.03-0.33,0.4-0.55,0.83-0.56c0.43,0.02,0.76,0.29,0.73,0.62c0,0.07-0.15,1.71-2.55,2.54c0.29,0.02,0.46,0.02,0.46,0.02
				s-8.77,7.91-14.24-1.15c-1.58-2.62,1.67-4.72,1.52-8.36c-0.13-3.08-2.48-5.4-6.65-6.3c-0.81,0.04-1.79,0.14-2.9,0.29
				c0.75,0.74,1.21,1.66,1.21,2.67c0,2.42-2.57,4.39-5.75,4.39s-5.75-1.97-5.75-4.39c0-0.45,0.12-0.88,0.28-1.3
				c-2.63,0.1-4.83-0.08-6.6-0.4c-0.16,0.81-0.29,1.59-0.33,2.27c-0.51,8.28,6.12,26.82,15.74,34.33
				c9.44,7.36,17.08,8.76,17.37,8.82c0.96,0.07,1.92,0.12,2.9,0.12c3.61,0,7.11-0.5,10.47-1.39c0.11-0.07,15.63-10.24,22.06-17.03
				c4.28-4.51,9.06-10.72,9.15-10.83c0-0.01,0-0.01,0-0.02c-2.71-0.65-5.26-1.42-7.32-2.34
				C260.93,108.89,257.64,107.83,256.51,106.68z M230.16,104.75c-0.75,0-1.36-0.46-1.36-1.04c0-0.57,0.61-1.04,1.36-1.04
				c0.75,0,1.36,0.46,1.36,1.04C231.52,104.28,230.91,104.75,230.16,104.75z M201.72,107.56l-2.26-0.91l-2.26,0.91l0.43-1.92
				l-1.83-1.36l2.52-0.28l1.13-1.75l1.13,1.75l2.52,0.28l-1.83,1.36L201.72,107.56z M243.39,110.05c0,0.4-0.42,0.72-0.94,0.72
				c-0.52,0-0.94-0.32-0.94-0.72c0-0.4,0.42-0.72,0.94-0.72C242.97,109.33,243.39,109.65,243.39,110.05z M241.23,104.11
				c0.78,0,1.41,0.48,1.41,1.08c0,0.59-0.63,1.08-1.41,1.08c-0.78,0-1.41-0.48-1.41-1.08C239.83,104.59,240.46,104.11,241.23,104.11
				z M227.47,117.43c3.96-0.27,8.26,0.98,8.26,0.98s-2.85,2.73-7.91,2.88c-2.63,0.08-6.55-1.86-7.48-2.27
				C220.35,119.01,223.78,117.67,227.47,117.43z M223.67,125.29c0,0,0.48,0.04,1.24,0.08c-2.34-0.75-3.57-1.88-3.65-1.95
				c-0.27-0.26-0.21-0.63,0.13-0.83c0.34-0.2,0.83-0.16,1.1,0.1c0.09,0.09,2.38,2.14,6.85,2.14c4.34-0.06,5.61-2.35,5.66-2.45
				c0.16-0.31,0.61-0.45,1.01-0.33c0.4,0.12,0.6,0.47,0.44,0.77c-0.04,0.08-0.75,1.36-2.7,2.28c-1.01,1.17-2.82,2.96-5,3.74
				c-3.35,1.21-8.9-0.58-8.9-0.58L223.67,125.29z M213.81,105.48c0.33,0,0.6,0.2,0.6,0.46c0,0.25-0.27,0.46-0.6,0.46
				c-0.33,0-0.6-0.2-0.6-0.46C213.21,105.68,213.48,105.48,213.81,105.48z M209.53,109.33c-0.48,0-0.87-0.3-0.87-0.66
				c0-0.37,0.39-0.66,0.87-0.66c0.48,0,0.87,0.3,0.87,0.66C210.39,109.03,210.01,109.33,209.53,109.33z M251.41,106.1l0.36,1.62
				l-1.9-0.76l-1.9,0.76l0.36-1.62l-1.54-1.14l2.12-0.24l0.95-1.47l0.95,1.47l2.12,0.24L251.41,106.1z"/>
		</g>
		<g>
			<path class="st1" d="M271.75,112.24c-0.19,0.53-0.99,2.69-2.44,5.48C270.32,115.9,271.14,114.06,271.75,112.24z"/>
		</g>
		<g>
			<path class="st1" d="M261.86,94.35c0.3-0.77,0.63-1.57,1.01-2.43c0,0,0,0,0-0.01c0.94-2.54,1.85-5.07,2.43-7.4
				c-0.14-0.09-0.31-0.2-0.45-0.3l-5.33,0.2c0.12,2.84-0.36,6.29-0.92,9.66C259.82,94.27,260.9,94.35,261.86,94.35z"/>
		</g>
		<g>
			<path class="st1" d="M260.62,107.12c0,0-0.76-0.74-0.89-2.93c0-0.08-0.01-0.15-0.01-0.23c-0.07-1.77,0.28-4.44,1.67-8.33
				c-0.9,0.2-1.95,0.36-3.11,0.47c-0.71,4.18-1.49,8.86-0.51,9.85c0.51,0.52,1.7,1.05,3.25,1.56c-0.11-0.12-0.24-0.22-0.33-0.35
				C260.64,107.14,260.62,107.12,260.62,107.12z"/>
		</g>
		<g>
			<path class="st3" d="M265.38,84.2l-0.53,0.02c0.15,0.1,0.31,0.2,0.45,0.3C265.34,84.41,265.36,84.31,265.38,84.2z"/>
		</g>
		<g>
			<path class="st3" d="M194.79,94.26c0.74-2.86,2.02-6.25,3.53-9.72l-3.76-0.14c-3.7,8.55-5.22,9-6.01,9.39
				C188.55,93.79,190.95,94.6,194.79,94.26z"/>
		</g>
		<g>
			<path class="st3" d="M258.48,80.07c1.99,1.28,3.82,2.47,5.44,3.54c0.76,0.29,1.29,0.49,1.46,0.56c0.07-0.3,0.14-0.59,0.2-0.88
				c0.46-2.89,0.24-5.07-0.58-6.17c-0.02-0.03-0.04-0.05-0.06-0.07c-0.07-0.08-0.14-0.15-0.21-0.22c-0.05-0.05-0.08-0.09-0.08-0.09
				c0.03,0.02,0.05,0.06,0.08,0.09c0.04,0.04,0.09,0.1,0.17,0.17c-4.2-4.67-28.84-16.76-39.46-21.84c-0.08-0.04-0.2-0.1-0.31-0.15
				C234.16,60.89,255.21,74.94,258.48,80.07z"/>
		</g>
		<g>
			<path class="st3" d="M208.7,65.1c1.5-2.09,5.49-3.94,9.83-5.43c4.09-1.4,21.51,8.75,35.16,17.35
				c-9.41-8.28-33.31-23.53-33.6-23.71c-0.15-0.1-0.22-0.23-0.25-0.37c-1.38,0.17-2.99,0.42-4.69,0.77
				c-9.81,4.24-12.1,7.53-14.4,14.24c-2.06,6-3.77,10.56-5.19,14.06c1.52-0.48,3.1-0.92,4.43-1.17
				C203.12,74.19,206.72,67.86,208.7,65.1z"/>
		</g>
		<g>
			<path class="st3" d="M228.76,128.83c2.17-0.79,3.99-2.58,5-3.74c-1.06,0.5-2.48,0.9-4.39,0.92c-0.07,0-0.15,0-0.22,0
				c-1.69,0-3.08-0.28-4.23-0.65c-0.76-0.04-1.24-0.08-1.24-0.08l-3.82,2.97C219.86,128.26,225.41,130.04,228.76,128.83z"/>
		</g>
		<g>
			<path class="st3" d="M225.04,109.5c0.18,0.04,0.38,0.09,0.6,0.12C225.43,109.58,225.23,109.54,225.04,109.5z"/>
		</g>
		<g>
			<path class="st3" d="M202.69,84.71c2.29,1.27,5.87,3.4,6.38,4.59c0,0-2.5-0.78-7.45,1.05c-3.24,1.19-4.62,3.07-5,3.67
				c1.26-0.22,2.6-0.53,4.07-1.05c7.22-2.57,16.52,1.65,16.52,1.65s-1.11-0.18-3.27-0.06c4.17,0.9,6.52,3.22,6.65,6.3
				c0.15,3.65-3.1,5.74-1.52,8.36c5.47,9.06,14.24,1.15,14.24,1.15s-0.17-0.01-0.46-0.02c-0.05,0.02-0.09,0.04-0.15,0.06
				c-1.23,0.39-2.96,0.59-4.64,0.59c-2.17,0-4.25-0.34-5.03-1.04c-1.94-1.76-0.39-4.13,0.85-6.03c0.57-0.87,1.11-1.69,1.17-2.23
				c0.23-2.16-1.08-5.23-1.09-5.26c-0.13-0.31,0.09-0.65,0.5-0.75c0.01,0,0.03,0,0.04,0c-2.01-5.76-5.67-8.98-9.97-10.52
				c0,0,0,0,0,0L202.69,84.71z"/>
		</g>
		<g>
			<path class="st1" d="M285.56,99.75c0,0-1.83-1.48-4.06-0.39c-0.26,0.56-0.51,1.08-0.71,1.54c-0.38,1.16-0.59,2.11-0.5,2.67
				c0.16,0.95,0.45,1.81,0.79,2.58c0.61,0.98,1.39,1.95,2.15,2.78c4.36-3.85,7.27-11.54,3.8-15.7c-0.58-0.7-1.29-1.22-2.07-1.6
				c-0.36,0.91-0.74,1.79-1.12,2.64C286.62,95.77,285.56,99.75,285.56,99.75z"/>
		</g>
		<g>
			<path class="st3" d="M285.56,99.75c0,0,1.06-3.98-1.7-5.48c-0.84,1.91-1.68,3.65-2.35,5.09
				C283.73,98.27,285.56,99.75,285.56,99.75z"/>
		</g>
		<g>
			<path class="st0" d="M257.09,93.8c-0.92-0.21-1.88-0.47-2.89-0.83c-7.22-2.57-16.52,1.65-16.52,1.65s2.1-0.33,6.18,0.23
				c-0.75,0.74-1.21,1.66-1.21,2.67c0,2.42,2.57,4.39,5.75,4.39s5.75-1.97,5.75-4.39c0-0.45-0.12-0.88-0.28-1.3
				c1.01,0.04,1.95,0.03,2.83,0c0.02-0.15,0.05-0.28,0.07-0.42C256.86,95.13,256.97,94.47,257.09,93.8z"/>
		</g>
		<g>
			<path class="st0" d="M194.44,95.82c1.77,0.31,3.97,0.5,6.6,0.4c-0.17,0.41-0.28,0.84-0.28,1.3c0,2.42,2.57,4.39,5.75,4.39
				s5.75-1.97,5.75-4.39c0-1.01-0.46-1.92-1.21-2.67c1.12-0.15,2.09-0.25,2.9-0.29c2.16-0.11,3.27,0.06,3.27,0.06
				s-9.3-4.22-16.52-1.65c-1.47,0.52-2.81,0.83-4.07,1.05c-0.65,0.11-1.25,0.19-1.83,0.24c-3.84,0.33-6.24-0.48-6.24-0.48
				S190.44,95.12,194.44,95.82z"/>
		</g>
		<g>
			<path class="st0" d="M202.69,84.71l11.83,0.45l6.06,0.23c0,0-15.8-5.22-19.79-4.68c-0.26,0.03-0.53,0.08-0.81,0.13
				c-1.33,0.25-2.9,0.69-4.43,1.17c-0.35,0.86-0.68,1.65-1,2.38l3.76,0.14L202.69,84.71z"/>
		</g>
		<g>
			<path class="st0" d="M223.95,96.44c0.01,0.03,1.32,3.11,1.09,5.26c-0.06,0.53-0.6,1.36-1.17,2.23c-1.24,1.9-2.8,4.27-0.85,6.03
				c0.78,0.71,2.86,1.04,5.03,1.04c1.68,0,3.42-0.2,4.64-0.59c0.06-0.02,0.09-0.04,0.15-0.06c2.41-0.83,2.55-2.47,2.55-2.54
				c0.02-0.33-0.31-0.6-0.73-0.62c-0.42,0-0.79,0.23-0.83,0.56c-0.01,0.04-0.12,1.04-1.74,1.55c-1.85,0.59-4.72,0.59-6.46,0.32
				c-0.23-0.04-0.42-0.08-0.6-0.12c-0.38-0.09-0.68-0.2-0.82-0.32c-1.28-1.16-0.04-3.05,1.05-4.72c0.67-1.02,1.24-1.9,1.32-2.66
				c0.25-2.4-1.1-5.6-1.16-5.73c-0.13-0.3-0.55-0.47-0.94-0.38c-0.01,0-0.03,0-0.04,0C224.04,95.79,223.82,96.12,223.95,96.44z"/>
		</g>
		<g>
			<path class="st0" d="M235.74,118.4c0,0-4.31-1.24-8.26-0.98c-3.69,0.25-7.13,1.59-7.13,1.59c0.93,0.41,4.85,2.34,7.48,2.27
				C232.89,121.13,235.74,118.4,235.74,118.4z"/>
		</g>
		<g>
			<path class="st0" d="M229.15,126.02c0.07,0,0.14,0,0.22,0c1.91-0.03,3.32-0.42,4.39-0.92c1.95-0.92,2.66-2.19,2.7-2.28
				c0.16-0.31-0.04-0.65-0.44-0.77c-0.4-0.12-0.85,0.03-1.01,0.33c-0.05,0.1-1.32,2.39-5.66,2.45c-4.47,0-6.75-2.05-6.85-2.14
				c-0.27-0.26-0.76-0.3-1.1-0.1c-0.34,0.2-0.4,0.58-0.13,0.83c0.07,0.07,1.31,1.21,3.65,1.95
				C226.06,125.74,227.46,126.02,229.15,126.02z"/>
		</g>
		<g>
			<path class="st4" d="M283.84,110.42c0.05,0.43-0.14,0.86-0.61,1.16c-0.33,0.2-0.72,0.3-1.11,0.3c-0.51,0-1.02-0.17-1.37-0.5
				c-0.1-0.1-1.96-1.89-3.14-4.72c-0.52-0.37-1.01-0.75-1.45-1.13c-1.03,0.25-2.26,0.52-3.68,0.8c0.38,0.5,0.7,0.84,0.71,0.85
				c0.46,0.46,0.47,1.06,0.1,1.53c0,0,0,0,0,0c0.96,0.11,1.63,0.79,1.5,1.52c-0.02,0.11-0.08,0.21-0.14,0.31
				c0.4,0.06,0.77,0.12,1.09,0.17c0.42,0.06,0.7,0.38,0.62,0.7c-0.07,0.28-0.4,0.48-0.76,0.48c-0.05,0-0.1,0-0.15-0.01
				c-0.54-0.08-2.45-0.38-4.86-0.83c-0.34-0.06-0.71-0.13-1.08-0.21c-1.59-0.31-3.33-0.68-5.02-1.09c2.06,0.92,4.61,1.69,7.32,2.34
				c8.74,2.09,19.02,2.88,19.02,2.88s-2.44-1.49-5.06-3.59c0,0,0.01,0.01,0.01,0.01S284.98,111.02,283.84,110.42z"/>
		</g>
		<g>
			<path class="st4" d="M262.88,91.92c1.44-3.23,2.32-6.18,2.71-8.62c-0.06,0.29-0.13,0.59-0.2,0.88c0,0.01,0,0.02-0.01,0.03
				c-0.02,0.11-0.04,0.21-0.07,0.32C264.73,86.85,263.82,89.38,262.88,91.92z"/>
		</g>
		<g>
			<path class="st4" d="M266.9,107.27c0.84,0.32,1.83,0.59,2.84,0.82c-0.25-0.3-0.53-0.68-0.82-1.12c-0.14,0.02-0.27,0.05-0.41,0.07
				C267.93,107.14,267.4,107.21,266.9,107.27z"/>
		</g>
		<g>
			<path class="st4" d="M261.01,107.52c0.38,0.13,0.78,0.25,1.2,0.37c-0.15-0.13-0.27-0.28-0.39-0.42c-0.7-0.09-1.01-0.23-1.13-0.3
				C260.77,107.3,260.9,107.4,261.01,107.52z"/>
		</g>
		<g>
			<path class="st4" d="M259.73,104.19c0-0.07-0.01-0.15-0.01-0.23C259.72,104.04,259.72,104.12,259.73,104.19z"/>
		</g>
		<g>
			<path class="st4" d="M237.68,54.56c0.04,0.01,10.27,3.35,21.4,7.63c0.07-0.02,0.13-0.04,0.2-0.06
				C251.46,59.04,243.22,56.31,237.68,54.56z"/>
		</g>
		<g>
			<path class="st4" d="M277.34,77.14c0.1,0.96-0.18,2.24-0.73,3.77c2.01-0.69,3.96-1.85,5.34-2.77c-0.35-0.71-2.48-2.02-5.67-3.64
				C276.86,75.4,277.26,76.29,277.34,77.14z"/>
		</g>
		<g>
			<path class="st4" d="M265.01,77.13c-0.02-0.03-0.04-0.05-0.06-0.07C264.97,77.08,264.99,77.1,265.01,77.13z"/>
		</g>
		<g>
			<path class="st4" d="M179.23,82.11c-0.98,5.09-1.53,8.66-1.53,8.66L179.23,82.11z"/>
		</g>
		<g>
			<path class="st4" d="M183.03,91.48c-0.01,0-0.02-0.01-0.03-0.01c0.83,0.3,1.76,0.7,2.81,1.24
				C185.12,92.31,184.25,91.87,183.03,91.48z"/>
		</g>
		<g>
			<path class="st4" d="M219.99,52.47c0.28-0.25,0.77-0.29,1.1-0.08c0.28,0.18,1.79,1.14,4.05,2.61c0.11,0.05,0.24,0.11,0.31,0.15
				c10.62,5.08,35.25,17.17,39.46,21.84c0.17,0.16,0.41,0.39,0.73,0.67c1.17,1,3.34,2.59,6.29,3.57c0.26,0.09,0.54,0.14,0.82,0.18
				c0.73-1.76,1.16-3.21,1.08-4.08c-0.18-1.77-2.63-4.25-5.73-6.67c-4.14-1.82-8.75-3.7-13.18-5.39c-0.87-0.33-1.22-1.14-0.79-1.81
				c0.19-0.29,0.52-0.49,0.88-0.62c-9.27-4.56-17.33-8.3-17.33-8.31c-4-1.26-6.6-2.02-6.6-2.02s10.56,0.53,16.03,0
				c2.62-0.25,4.33-0.61,5.42-0.92c-2.89-3.08-6.09-6.43-8.46-7.02c-4.45-1.1-15.13,2.21-15.24,2.24c-0.4,0.12-0.85-0.02-1.02-0.33
				c-0.16-0.31,0.03-0.65,0.43-0.78c0.46-0.14,11.32-3.5,16.31-2.27c2.9,0.71,6.21,4.21,9.42,7.64c0.11-0.05,0.17-0.09,0.17-0.09
				l6.25,1.52l-2.69-2.73c0,0,3.88-1.98,4.77-3.06c0.88-1.08,1.94-1.48,1.94-1.48l8.64,4.54l-5.46-6.36l1.53-1.72
				c-1.4-0.79-2.81-1.53-4.2-2.21c-2.91-1.23-6.06-2.1-9.2-2.11h-0.19c-11.33,0-26.86,3.41-27.01,3.44
				c-0.41,0.1-0.85-0.09-0.97-0.41c-0.12-0.32,0.12-0.65,0.53-0.74c0.13-0.03,10.13-2.22,20.03-3.11c0.03-0.06,0.02-0.14,0.09-0.19
				c0.04-0.03,1.03-0.89,2.41-2.29c-3.08,0.83-19.09,2.37-20.49,2.68c-1.48,0.33-10.36-2.23-15.2-2.56
				c-4.85-0.32-14.15,2.57-14.15,2.57s-0.02-0.11-0.04-0.29c-6.8,1.81-14.13,4.57-19.57,8.27c0,0.01,0.9,1.38,2.21,2.96
				c4.66-2.74,11.67-6.61,17.09-8.46c8.96-3.06,24.02,3.37,24.65,3.65c0.38,0.16,0.51,0.53,0.3,0.81c-0.22,0.28-0.69,0.38-1.07,0.23
				c-0.15-0.07-15.01-6.41-23.25-3.6c-5.31,1.82-12.41,5.75-17.02,8.47c-0.72,1.37-1.04,4.37-1.04,4.37l3.62-2.21
				c0.63,0.48,1.28,0.88,1.92,1.13c0.7,0.27,1.4,0.52,2.09,0.74c-1.73,2.01-1.21,7.61-1.21,7.61s1.73-2.64,3.33-4.15
				c0.86-0.81,2.14-1.56,3.16-2.09c1.33,0.26,2.49,0.44,3.37,0.55c2.66-2.17,5.41-4.11,7.48-4.82c3.87-1.33,15.21-4.06,15.7-4.17
				c0.41-0.1,0.85,0.08,0.98,0.39c0.13,0.31-0.1,0.65-0.51,0.75c-0.12,0.03-11.74,2.82-15.52,4.12
				c-3.92,1.35-10.91,7.88-14.13,11.02c-1.8,2.83-3.28,6.22-4.72,9.99c-3.07,8.01-9.3,10.01-9.31,10.01c0,0,0,0,0,0
				c0,0,4.8,0.85,8.63-1.13c5.86-3.03,9.55-13.65,12.88-20.25c3.33-6.59,16.46-7.85,16.46-7.85c-0.72,0.29-1.41,0.58-2.06,0.86
				c1.69-0.35,3.3-0.6,4.69-0.77C219.8,52.78,219.84,52.61,219.99,52.47z"/>
		</g>
		<g>
			<path class="st0" d="M198.39,35.12c0.55,0.21,1.32,0.48,2.07,0.68c0.07,0.02,0.13,0.02,0.2,0.04c-0.02-0.35-0.02-0.77,0.01-1.24
				c-0.51-0.14-1.12-0.36-1.83-0.64c-4.28-1.7-11.64-5.95-14.76-13.68c-0.06-0.15-0.07-0.29-0.11-0.44c-0.77-2.8,1.85-5.36,4.3-7.05
				c0.41-0.28,0.9-0.56,1.37-0.84c-1.64,2.78-1.6,5.28-1.05,7.18c0.07,0.25,0.21,0.47,0.3,0.71c1.03,2.74,3.21,5.08,5.74,6.85
				c2.6,1.82,5.53,3.07,7.83,3.58c0.31-0.3,0.66-0.59,1.08-0.82c0.11-0.06,0.22-0.1,0.33-0.16c-0.3-0.04-0.61-0.08-0.94-0.16
				c-2.51-0.55-5.99-2.17-8.74-4.52c-1.59-1.36-2.9-2.97-3.66-4.77c-0.14-0.32-0.31-0.64-0.41-0.97c-0.84-2.88,0.07-5.77,2.55-8.54
				c9.64-4.56,26.03-7.99,41.43-6.73c9.18,2.57,16.08,6.62,17.16,9.26c0.09,0.22,0.15,0.45,0.22,0.68c0.7,0.47,1.33,1,1.92,1.56
				c-0.09-0.88-0.3-1.76-0.64-2.6c-1.05-2.57-5.99-5.68-12.4-8.13c2.66,0.46,5.25,1.08,7.73,1.89c6.3,2.06,10.05,5.06,11.16,8.92
				c0.43,1.51,0.42,3.08,0.13,4.65c-0.89,4.95-4.69,9.89-7.64,13.07c-0.08,0.09-0.17,0.19-0.25,0.27c-0.14,0.41-0.3,0.69-0.47,0.78
				c0,0,0.61,0,1.66,0.03c3.12-3.29,7.38-8.67,8.28-14.15c0.27-1.65,0.27-3.3-0.19-4.91c-1.22-4.26-5.29-7.55-12.07-9.77
				c-4.29-1.4-9.06-2.25-14-2.67c-1.34-0.38-2.7-0.72-4.08-1.02c-7.95-1.72-23.03-3.45-34.64,4.27c-1.9,1.26-3.36,2.51-4.48,3.73
				c-1.57,0.77-3.03,1.58-4.27,2.43c-3.79,2.61-5.44,5.33-4.86,7.93c0.06,0.27,0.12,0.53,0.22,0.8
				C186.33,29.88,195.63,34.06,198.39,35.12z M197.01,6.64c10.04-6.67,22.88-5.91,30.89-4.47c-11.58-0.05-23.46,2.09-32.28,5.49
				C196.06,7.32,196.51,6.98,197.01,6.64z"/>
		</g>
		<g>
			<path class="st0" d="M248.18,36.4c-0.06,0.05-0.06,0.13-0.09,0.19c-9.9,0.89-19.91,3.08-20.03,3.11
				c-0.41,0.09-0.65,0.42-0.53,0.74c0.12,0.31,0.56,0.5,0.97,0.41c0.16-0.03,15.69-3.44,27.01-3.44h0.19
				c3.14,0.01,6.3,0.88,9.2,2.11c-2.62-1.28-5.13-2.35-7.29-3.2c-0.63-0.06-1.27-0.1-1.9-0.1h-0.2c-1.69,0-3.48,0.08-5.3,0.21
				c0.49-0.45,1.15-1.09,1.92-1.87c0.06-0.06,0.12-0.12,0.18-0.18c-0.79-0.26-1.28-0.42-1.28-0.42c-0.08,0.05-0.24,0.1-0.43,0.15
				C249.22,35.51,248.22,36.37,248.18,36.4z"/>
		</g>
		<g>
			<path class="st0" d="M251.28,20.24c-0.17,0.59-0.36,1.15-0.57,1.7c0.28,0.76,0.52,1.53,0.7,2.3c0.27-0.59,0.54-1.21,0.79-1.87
				C251.95,21.68,251.64,20.97,251.28,20.24z"/>
		</g>
		<g>
			<path class="st0" d="M181.21,108.82c-0.37,0.17-0.49,0.54-0.27,0.82c0.01,0.02,0.49,0.64,1.04,1.61c1.17,2.1,2.64,5.83,0.41,8.76
				c-1.23,1.62-3.48,1.94-5.17,1.56c-1.58-0.37-3.21-1.53-3.03-3.68c0.32-3.92,2.68-5.38,2.68-5.38c0.34-0.2,0.41-0.57,0.15-0.83
				c-0.26-0.26-0.75-0.31-1.1-0.11c-0.12,0.07-2.92,1.75-3.29,6.26c-0.23,2.85,1.98,4.4,4.13,4.9c0.59,0.14,1.18,0.2,1.77,0.2
				c2.11,0,4.11-0.84,5.21-2.3c2.41-3.17,1.17-6.99-0.06-9.35c-0.66-1.28-1.33-2.14-1.4-2.24
				C182.06,108.74,181.59,108.65,181.21,108.82z"/>
		</g>
		<g>
			<path class="st0" d="M176.36,105.1c-0.27-0.25-0.77-0.29-1.1-0.08c-0.34,0.21-0.39,0.58-0.11,0.84l1.95,1.83
				c0.15,0.14,0.38,0.22,0.61,0.22c0.17,0,0.35-0.04,0.49-0.14c0.34-0.21,0.39-0.58,0.11-0.84L176.36,105.1z"/>
		</g>
		<g>
			<path class="st0" d="M172.73,98.88c-0.43,0.05-0.72,0.35-0.66,0.68l0.55,2.89c0.06,0.3,0.39,0.51,0.77,0.51
				c0.04,0,0.08,0,0.11-0.01c0.43-0.05,0.72-0.35,0.66-0.68l-0.55-2.89C173.56,99.05,173.15,98.82,172.73,98.88z"/>
		</g>
		<g>
			<path class="st0" d="M173.39,95.95c0.23,0,0.45-0.08,0.61-0.22l2.36-2.23c0.27-0.26,0.22-0.63-0.12-0.84
				c-0.34-0.21-0.83-0.17-1.1,0.09l-2.36,2.23c-0.27,0.26-0.22,0.63,0.12,0.84C173.05,95.91,173.22,95.95,173.39,95.95z"/>
		</g>
		<g>
			<path class="st0" d="M273.03,49.81l-8.64-4.54c0,0-1.06,0.4-1.94,1.48c-0.88,1.08-4.77,3.06-4.77,3.06l2.69,2.73l-6.25-1.52
				c0,0-0.07,0.04-0.17,0.09c0.05,0.05,0.1,0.11,0.15,0.16c2.22,2.37,4.51,4.82,5.98,5.46c0.37,0.17,0.5,0.53,0.29,0.82
				c-0.15,0.19-0.41,0.3-0.68,0.3c-0.13,0-0.27-0.03-0.39-0.08c-1.76-0.77-3.95-3.1-6.47-5.8c-0.11-0.11-0.22-0.23-0.33-0.35
				c-1.08,0.31-2.79,0.66-5.42,0.92c-5.47,0.53-16.03,0-16.03,0s2.6,0.75,6.6,2.02h0c0,0,0,0,0,0c5.54,1.75,13.78,4.48,21.6,7.57
				c0.48-0.09,1.01-0.04,1.45,0.2c0.17,0.09,0.5,0.28,0.91,0.51c0.45-0.13,0.97-0.14,1.44,0.04c1.47,0.58,10.82,4.32,17.39,8.84
				c3.02,1.71,5.21,3.32,6.09,4.7c-0.02-8.88-1.11-20.12-5.91-25.82c-0.54-0.64-1.13-1.26-1.75-1.87c-0.11,0.04-0.22,0.07-0.35,0.07
				c-0.13,0-0.27-0.03-0.39-0.08c-0.23-0.1-0.36-0.27-0.38-0.45c-0.34-0.54-2.5-2.58-5.67-4.75c-0.98-0.62-1.98-1.21-2.99-1.78
				l-1.53,1.72L273.03,49.81z"/>
		</g>
		<g>
			<path class="st0" d="M264.74,76.83c-0.03-0.03-0.05-0.06-0.08-0.09C264.66,76.74,264.69,76.78,264.74,76.83z"/>
		</g>
		<g>
			<path class="st0" d="M264.95,77.05c0.02,0.03,0.04,0.05,0.06,0.07c0.82,1.1,1.04,3.28,0.58,6.17c-0.39,2.45-1.27,5.39-2.71,8.62
				c0,0,0,0,0,0.01c-0.38,0.86-0.71,1.66-1.01,2.43c-0.96,0-2.04-0.08-3.25-0.27c-0.1,0.62-0.21,1.25-0.31,1.86
				c-0.01,0.05-0.02,0.11-0.03,0.16c1.17-0.11,2.21-0.27,3.11-0.47c-1.39,3.88-1.74,6.56-1.67,8.33c0,0.08,0.01,0.15,0.01,0.23
				c0.13,2.19,0.89,2.93,0.89,2.93s0.02,0.02,0.06,0.05c0.12,0.07,0.43,0.22,1.13,0.3c-0.21-0.24-0.4-0.49-0.53-0.76
				c-0.88-1.73,0.94-5.36,5.63-13.88c2.08-3.77,4.48-8.13,5.84-11.41c-0.28-0.04-0.55-0.1-0.82-0.18c-2.95-0.98-5.12-2.57-6.29-3.57
				c-0.32-0.28-0.57-0.51-0.73-0.67c-0.07-0.07-0.13-0.13-0.17-0.17C264.81,76.9,264.88,76.97,264.95,77.05z"/>
		</g>
		<g>
			<path class="st0" d="M276.62,80.91c-1.11,3.14-3.41,7.45-6.45,12.98c-2.48,4.49-5.87,10.65-5.57,11.91
				c0.28,0.54,1.16,1.04,2.31,1.48c0.5-0.06,1.03-0.14,1.61-0.23c0.14-0.02,0.27-0.05,0.41-0.07c-1.1-1.71-2.11-4.31-0.24-6.62
				c3.32-4.11,13.8-19.52,13.3-22.18c0-0.01-0.02-0.02-0.03-0.03C280.58,79.06,278.62,80.23,276.62,80.91z"/>
		</g>
		<g>
			<path class="st0" d="M271.68,101.77c-1.19,1.48-0.04,3.46,0.8,4.57c1.42-0.28,2.65-0.55,3.68-0.8c-0.72-0.61-1.32-1.23-1.69-1.81
				c-1.09-1.67,1.89-7,4.6-12.47C275.49,96.72,271.75,101.67,271.68,101.77z"/>
		</g>
		<g>
			<path class="st0" d="M280.79,100.89c-0.34,0.76-0.58,1.37-0.68,1.78c-0.24,1.01,0.22,2.25,0.97,3.46
				c-0.34-0.77-0.64-1.63-0.79-2.58C280.2,103,280.42,102.05,280.79,100.89z"/>
		</g>
		<g>
			<path class="st0" d="M280.74,111.38c0.35,0.33,0.86,0.5,1.37,0.5c0.39,0,0.78-0.1,1.11-0.3c0.47-0.29,0.66-0.73,0.61-1.16
				c-1.69-0.89-4.17-2.28-6.23-3.76C278.78,109.49,280.64,111.28,280.74,111.38z"/>
		</g>
		<g>
			<path class="st0" d="M263.08,62.88c-0.46-0.18-0.98-0.18-1.44-0.04c-0.41-0.23-0.74-0.42-0.91-0.51
				c-0.44-0.24-0.97-0.29-1.45-0.2c-0.07,0.01-0.13,0.04-0.2,0.06c7.74,2.98,15.9,6.42,21.39,9.53
				C273.9,67.2,264.54,63.46,263.08,62.88z"/>
		</g>
		<g>
			<path class="st0" d="M254.12,63.48c-0.43,0.67-0.08,1.48,0.79,1.81c4.43,1.69,9.04,3.58,13.18,5.39c3.1,2.42,5.55,4.89,5.73,6.67
				c0.09,0.87-0.34,2.32-1.08,4.08c-1.36,3.28-3.76,7.64-5.84,11.41c-4.69,8.51-6.52,12.15-5.63,13.88
				c0.14,0.27,0.32,0.52,0.53,0.76c0.12,0.14,0.25,0.28,0.39,0.42c-0.42-0.12-0.82-0.25-1.2-0.37c-1.55-0.51-2.74-1.04-3.25-1.56
				c-0.98-1-0.2-5.67,0.51-9.85c0.01-0.05,0.02-0.11,0.03-0.16c0.1-0.61,0.21-1.23,0.31-1.86c0.56-3.37,1.03-6.82,0.92-9.66
				l5.33-0.2l0.53-0.02c0-0.01,0-0.02,0.01-0.03c-0.17-0.07-0.7-0.28-1.46-0.56c-1.18-0.44-2.89-1.06-4.69-1.63
				c-0.13-0.56-0.3-1.08-0.53-1.53c-0.06-0.12-0.15-0.25-0.23-0.38c-3.27-5.13-24.32-19.18-33.34-25.06
				c-2.26-1.47-3.77-2.44-4.05-2.61c-0.33-0.21-0.82-0.18-1.1,0.08c-0.15,0.14-0.19,0.31-0.15,0.47c0.03,0.14,0.1,0.27,0.25,0.37
				c0.29,0.18,24.18,15.43,33.6,23.71c1.82,1.6,3.1,2.94,3.57,3.86c0.09,0.17,0.13,0.38,0.2,0.57c-1.22-0.34-2.39-0.62-3.36-0.75
				c-3.99-0.54-19.79,4.68-19.79,4.68l23.68-0.9c0.11,2.68-0.35,6.03-0.89,9.31c-0.11,0.67-0.22,1.34-0.34,1.99
				c-0.03,0.15-0.05,0.28-0.07,0.42c-0.95,5.63-1.44,9.17-0.17,10.47c1.13,1.15,4.42,2.21,7.96,3.08c1.69,0.41,3.43,0.78,5.02,1.09
				c0.38,0.08,0.75,0.15,1.08,0.21c2.41,0.45,4.32,0.75,4.86,0.83c0.05,0.01,0.1,0.01,0.15,0.01c0.36,0,0.69-0.2,0.76-0.48
				c0.08-0.32-0.19-0.64-0.62-0.7c-0.32-0.05-0.7-0.11-1.09-0.17c0.05-0.1,0.12-0.2,0.14-0.31c0.14-0.74-0.53-1.42-1.5-1.52
				c0,0,0,0,0,0c0.37-0.47,0.36-1.07-0.1-1.53c-0.01-0.01-0.33-0.35-0.71-0.85c-0.84-1.11-1.99-3.09-0.8-4.57
				c0.08-0.09,3.81-5.04,7.38-10.51c2.66-5.38,5.06-10.9,3.05-13.23c-2.24-2.6-15.61-9.51-27.11-15.16
				C254.64,62.99,254.32,63.19,254.12,63.48z M281.95,78.14c0.01,0.01,0.02,0.02,0.03,0.03c0.5,2.67-9.98,18.07-13.3,22.18
				c-1.86,2.31-0.85,4.91,0.24,6.62c0.28,0.44,0.57,0.82,0.82,1.12c-1.01-0.23-2-0.51-2.84-0.82c-1.15-0.43-2.03-0.93-2.31-1.48
				c-0.3-1.26,3.09-7.42,5.57-11.91c3.04-5.52,5.34-9.84,6.45-12.98c0.54-1.54,0.83-2.82,0.73-3.77c-0.09-0.84-0.48-1.73-1.06-2.64
				C279.47,76.11,281.61,77.43,281.95,78.14z"/>
		</g>
		<g>
			<path class="st0" d="M277.76,48.26c0.02,0.18,0.16,0.35,0.38,0.45c0.12,0.06,0.26,0.08,0.39,0.08c0.12,0,0.24-0.03,0.35-0.07
				c-1.96-1.9-4.3-3.64-6.79-5.22C275.26,45.68,277.42,47.73,277.76,48.26z"/>
		</g>
		<g>
			<path class="st0" d="M201.07,40.37c8.23-2.81,23.1,3.53,23.25,3.6c0.38,0.16,0.85,0.06,1.07-0.23c0.21-0.29,0.08-0.65-0.3-0.81
				c-0.63-0.27-15.69-6.7-24.65-3.65c-5.42,1.85-12.43,5.72-17.09,8.46c-2.82,1.66-4.78,2.91-4.99,3.04
				c-0.33,0.21-0.37,0.59-0.1,0.84c0.16,0.14,0.38,0.21,0.6,0.21c0.18,0,0.36-0.05,0.5-0.14c0.05-0.03,1.92-1.22,4.69-2.85
				C188.66,46.12,195.76,42.19,201.07,40.37z"/>
		</g>
		<g>
			<path class="st0" d="M207.41,51.05c3.78-1.3,15.41-4.09,15.52-4.12c0.41-0.1,0.64-0.43,0.51-0.75c-0.13-0.31-0.57-0.48-0.98-0.39
				c-0.48,0.11-11.83,2.84-15.7,4.17c-2.07,0.71-4.82,2.65-7.48,4.82c-4.48,3.66-8.71,8-8.99,8.29c-0.26,0.26-0.18,0.64,0.16,0.83
				c0.14,0.08,0.3,0.12,0.47,0.12c0.24,0,0.47-0.08,0.63-0.24c0.03-0.03,0.68-0.7,1.72-1.71C196.5,58.93,203.49,52.4,207.41,51.05z"
				/>
		</g>
		<g>
			<path class="st0" d="M259.32,57.77c0.12,0.05,0.26,0.08,0.39,0.08c0.27,0,0.53-0.11,0.68-0.3c0.22-0.29,0.09-0.65-0.29-0.82
				c-1.47-0.64-3.76-3.09-5.98-5.46c-0.05-0.05-0.1-0.11-0.15-0.16c-3.21-3.43-6.53-6.93-9.42-7.64
				c-4.99-1.22-15.85,2.13-16.31,2.27c-0.4,0.13-0.59,0.47-0.43,0.78c0.16,0.31,0.62,0.45,1.02,0.33
				c0.11-0.03,10.79-3.34,15.24-2.24c2.37,0.58,5.57,3.94,8.46,7.02c0.11,0.12,0.22,0.23,0.33,0.35
				C255.37,54.67,257.55,57,259.32,57.77z"/>
		</g>
		<g>
			<path class="st3" d="M213.81,106.39c0.33,0,0.6-0.2,0.6-0.46c0-0.25-0.27-0.46-0.6-0.46c-0.33,0-0.6,0.2-0.6,0.46
				C213.21,106.19,213.48,106.39,213.81,106.39z"/>
		</g>
		<g>
			<path class="st3" d="M210.39,108.67c0-0.37-0.39-0.66-0.87-0.66c-0.48,0-0.87,0.3-0.87,0.66c0,0.37,0.39,0.66,0.87,0.66
				C210.01,109.33,210.39,109.03,210.39,108.67z"/>
		</g>
		<g>
			<path class="st3" d="M241.51,110.05c0,0.4,0.42,0.72,0.94,0.72c0.52,0,0.94-0.32,0.94-0.72c0-0.4-0.42-0.72-0.94-0.72
				C241.93,109.33,241.51,109.65,241.51,110.05z"/>
		</g>
		<g>
			<path class="st3" d="M241.23,106.26c0.78,0,1.41-0.48,1.41-1.08c0-0.59-0.63-1.08-1.41-1.08c-0.78,0-1.41,0.48-1.41,1.08
				C239.83,105.78,240.46,106.26,241.23,106.26z"/>
		</g>
		<g>
			<path class="st3" d="M230.16,102.68c-0.75,0-1.36,0.46-1.36,1.04c0,0.57,0.61,1.04,1.36,1.04c0.75,0,1.36-0.46,1.36-1.04
				C231.52,103.14,230.91,102.68,230.16,102.68z"/>
		</g>
		<g>
			<polygon class="st3" points="200.59,104 199.46,102.25 198.33,104 195.81,104.28 197.63,105.64 197.2,107.56 199.46,106.66 
				201.72,107.56 201.29,105.64 203.11,104.28 			"/>
		</g>
		<g>
			<polygon class="st3" points="249.88,103.25 248.93,104.72 246.81,104.95 248.34,106.1 247.98,107.71 249.88,106.95 
				251.78,107.71 251.41,106.1 252.95,104.95 250.83,104.72 			"/>
		</g>
		<g>
			<path class="st4" d="M153.86,204.72c-2.49,32.23,1.94,55.55,5.1,66.3c0.56,1.67,1.11,3.28,1.64,4.81
				c0.45,1.09,0.8,1.71,0.98,1.81c0.56,0.3,9.16-14.37,8.49-21.15c-1.66-16.88-2.43-31.65-2.27-39.13
				C167.83,216.27,158.44,208.74,153.86,204.72z"/>
		</g>
		<g>
			<path class="st4" d="M286.44,183.35c4.13,1.91,8.15,3.91,11.74,5.91C294.6,187.22,290.58,185.23,286.44,183.35z"/>
		</g>
		<g>
			<path class="st4" d="M305.26,198.66c-4.72-3.57-29.64-14.03-44.4-20.49l-30.48,7.98l-34.85-7.22
				c-13.81,4.83-30.68,11.23-34.27,14.85c-3.41,3.44-5.57,6.9-6.9,9.55c4.89,2.62,14.14,8.68,14.38,8.89
				c2.54,2.16,1.8,2.4,1.89,4.91c0.27,7.5,2.01,20.99,3.52,28.27c1.6,7.74,10.17,47.41,10.19,47.49h91.35
				c0,0,7.42-34.16,10.46-46.11c1.62-6.38,5.86-18.07,3.24-29.65c-1.98-8.76,3.24-4.36,3.24-4.36s-1.22,41.76-5.33,63.4
				c-2.47,12.98,25.9,16.73,25.9,16.73s4.03-47.25,0.1-80.3c-0.08-0.7-0.17-1.4-0.26-2.09
				C312.88,209.65,311.52,203.39,305.26,198.66z M174.46,233.92c-0.16-0.31,0.02-0.65,0.42-0.78c0.4-0.13,0.86,0.02,1.02,0.32
				c0.06,0.11,6.08,10.86,22.74,12.96c16.8,2.11,25.86-1.42,25.95-1.46c0.38-0.15,0.85-0.04,1.05,0.25c0.2,0.29,0.06,0.65-0.32,0.81
				c-0.29,0.12-5.79,2.29-16.22,2.29c-3.13,0-6.7-0.2-10.71-0.7C180.85,245.39,174.52,234.03,174.46,233.92z M262.55,247.6
				c-4.01,0.5-7.58,0.7-10.71,0.7c-10.43,0-15.92-2.17-16.22-2.29c-0.38-0.15-0.52-0.51-0.32-0.81c0.2-0.29,0.67-0.4,1.05-0.25
				c0.09,0.04,9.14,3.59,25.95,1.46c16.66-2.09,22.68-12.85,22.74-12.96c0.17-0.3,0.62-0.45,1.02-0.32c0.4,0.13,0.59,0.47,0.42,0.78
				C286.42,234.03,280.09,245.39,262.55,247.6z"/>
		</g>
		<g>
			<path class="st4" d="M312.07,204.24c-0.17-0.94-0.34-1.86-0.53-2.76c-0.1-0.46-0.27-0.93-0.5-1.41
				c-0.18-0.38-0.38-0.76-0.63-1.14C311.13,200.5,311.67,202.41,312.07,204.24z"/>
		</g>
		<g>
			<path class="st4" d="M199.71,177.48l30.67,6.74l27.89-7.19c-4.89-2.16-8.18-3.71-8.39-4.1c-0.1-0.2-0.15-0.67-0.16-1.32
				l-19.71,4.48l-15.03-3.41l-0.46-0.1C214.52,172.57,208.1,174.6,199.71,177.48z"/>
		</g>
		<g>
			<path class="st0" d="M287.29,276.15c4.12-21.63,5.33-63.4,5.33-63.4s-5.21-4.4-3.24,4.36c2.61,11.58-1.62,23.27-3.24,29.65
				c-3.04,11.95-10.46,46.11-10.46,46.11h37.51C313.19,292.89,284.82,289.13,287.29,276.15z"/>
		</g>
		<g>
			<path class="st0" d="M209.1,248.3c10.43,0,15.92-2.17,16.22-2.29c0.38-0.15,0.53-0.51,0.32-0.81c-0.2-0.29-0.67-0.4-1.05-0.25
				c-0.09,0.04-9.14,3.57-25.95,1.46c-16.66-2.09-22.68-12.85-22.74-12.96c-0.16-0.3-0.62-0.45-1.02-0.32
				c-0.4,0.13-0.59,0.47-0.42,0.78c0.06,0.11,6.39,11.47,23.93,13.68C202.4,248.1,205.97,248.3,209.1,248.3z"/>
		</g>
		<g>
			<path class="st0" d="M286.06,233.14c-0.4-0.13-0.85,0.02-1.02,0.32c-0.06,0.11-6.08,10.86-22.74,12.96
				c-16.81,2.12-25.86-1.42-25.95-1.46c-0.38-0.15-0.85-0.04-1.05,0.25c-0.2,0.29-0.06,0.65,0.32,0.81
				c0.29,0.12,5.79,2.29,16.22,2.29c3.13,0,6.71-0.2,10.71-0.7c17.54-2.21,23.87-13.56,23.93-13.68
				C286.65,233.61,286.46,233.26,286.06,233.14z"/>
		</g>
		<g>
			<path class="st0" d="M174.15,245.39c-1.51-7.29-3.25-20.77-3.52-28.27c-0.09-2.51,0.65-2.75-1.89-4.91
				c-0.25-0.21-9.49-6.27-14.38-8.89c1.33-2.65,3.49-6.11,6.9-9.55c3.59-3.62,20.46-10.02,34.27-14.85l34.85,7.22l30.48-7.98
				c-0.9-0.4-1.77-0.78-2.59-1.14l-27.89,7.19l-30.67-6.74c8.4-2.88,14.81-4.91,14.82-4.91h0l-8.02-1.82c0,0-0.02,0-0.02,0.01
				c-0.48,0.13-24.89,6.9-41.65,15.52c-14.08,7.24-16.03,12.36-16.31,14.37c-0.01,0-0.03-0.01-0.03-0.01s-1.48,1.21-3.06,18.41
				c-0.6,6.54,6.79,73.85,6.79,73.85h32.1c0,0,0,0,0,0C184.31,292.8,175.75,253.14,174.15,245.39z M170.07,256.48
				c0.67,6.78-7.93,21.45-8.49,21.15c-0.19-0.1-0.53-0.72-0.98-1.81c-0.46-1.11-1.02-2.72-1.64-4.81c-3.17-10.74-7.6-34.06-5.1-66.3
				c4.59,4.02,13.97,11.55,13.95,12.63C167.64,224.84,168.42,239.6,170.07,256.48z"/>
		</g>
		<g>
			<path class="st1" d="M251.02,33.96c0,0,0.49,0.15,1.28,0.42c0.2,0.07,0.38,0.13,0.62,0.21c1.15,0.4,2.78,0.98,4.68,1.74
				c2.16,0.86,4.67,1.92,7.29,3.2c1.39,0.68,2.8,1.42,4.2,2.21c1.01,0.57,2.01,1.16,2.99,1.78c2.49,1.58,4.83,3.32,6.79,5.22
				c0.63,0.61,1.21,1.23,1.75,1.87c4.81,5.7,5.9,16.94,5.91,25.82c-0.88-1.38-3.07-2.99-6.09-4.7c-5.49-3.11-13.65-6.55-21.39-9.53
				c-11.13-4.29-21.36-7.62-21.4-7.63c0,0,0,0,0,0h0c0,0,8.06,3.75,17.33,8.31c11.5,5.66,24.87,12.57,27.11,15.16
				c2,2.33-0.39,7.85-3.05,13.23c-2.7,5.47-5.68,10.8-4.6,12.47c0.38,0.58,0.98,1.19,1.69,1.81c0.44,0.38,0.93,0.76,1.45,1.13
				c2.06,1.49,4.55,2.88,6.23,3.76c1.14,0.6,1.92,0.97,1.92,0.97s-0.01-0.01-0.01-0.01c-0.04-0.03-1.23-1.05-2.52-2.47
				c-0.76-0.83-1.55-1.8-2.15-2.78c-0.75-1.22-1.22-2.45-0.97-3.46c0.1-0.41,0.34-1.02,0.68-1.78c0.2-0.46,0.45-0.98,0.71-1.54
				c0.68-1.44,1.51-3.18,2.35-5.09c0.38-0.86,0.75-1.74,1.12-2.64c0.33-0.82,0.64-1.64,0.93-2.47c0,0,0,0.02,0,0.02
				s12.09-31.26,2.68-43.34c-8.04-10.32-29.73-11.67-35.89-11.84C251.63,33.96,251.02,33.96,251.02,33.96z"/>
		</g>
		<g>
			<path class="st1" d="M232.68,8.24c0.74,0.12,11.71,2.02,16.55,8.62c0.84,1.15,1.51,2.29,2.06,3.38c0.36,0.73,0.67,1.44,0.92,2.13
				c1.52,4.1,1.26,7.23,1.22,7.61c0,0.03-0.01,0.05-0.01,0.05s3.06-5.42,2.46-10.2c-0.18-1.41-0.66-2.77-1.65-3.91
				c-0.26-0.29-0.55-0.56-0.83-0.83c-0.59-0.56-1.22-1.09-1.92-1.56c-7.08-4.81-18.87-5.3-18.87-5.3S232.65,8.24,232.68,8.24z"/>
		</g>
		<g>
			<path class="st1" d="M240.58,139.97C240.58,139.97,240.57,139.97,240.58,139.97c-0.01,0.01,4.89-1.05,11.06-4.43
				c0.05-0.03,0.1-0.06,0.15-0.08c2.8-1.55,5.85-3.57,8.83-6.2c4.02-3.55,6.87-8.04,8.69-11.53c1.45-2.79,2.25-4.94,2.44-5.48
				c0.03-0.08,0.05-0.13,0.05-0.13s-0.01,0.01-0.01,0.01c-0.08,0.11-4.87,6.31-9.15,10.83C256.2,129.73,240.68,139.9,240.58,139.97z
				"/>
		</g>
		<g>
			<path class="st1" d="M249.72,171.61c0.01,0.66,0.06,1.13,0.16,1.32c0.2,0.39,3.5,1.93,8.39,4.1c0.82,0.36,1.69,0.74,2.59,1.14
				c14.76,6.46,39.68,16.93,44.4,20.49c6.26,4.73,7.62,11,7.78,11.84c0.09,0.69,0.18,1.39,0.26,2.09h0.33v-12.52h-2.58
				c0.22,0.47,0.4,0.94,0.5,1.41c0.19,0.9,0.36,1.82,0.53,2.76c-0.4-1.82-0.94-3.74-1.66-5.31c-0.49-1.07-1.06-1.98-1.73-2.59
				c-1.24-1.13-2.79-2.3-4.57-3.49h9.57v-12.52h-30.54v1.52c-14.76-6.61-29.68-11.85-29.68-11.85c-0.07-2.45-1.99-16.36-2-16.39l0,0
				C251.47,154.01,249.66,167.2,249.72,171.61z M298.18,189.26c-3.59-2-7.61-4-11.74-5.91C290.58,185.23,294.6,187.22,298.18,189.26
				z"/>
		</g>
		<g>
			<rect x="295.42" y="137.2" class="st2" width="125.71" height="5.39"/>
		</g>
		<g>
			<rect x="295.42" y="148.75" class="st2" width="125.71" height="5.39"/>
		</g>
	</g>
</g>
</svg>
